<svg width="141" height="20" viewBox="0 0 141 20" fill="none" xmlns="http://www.w3.org/2000/svg">
<path d="M0.125 18V0.545454H4.86364V14.1818H11.9205V18H0.125ZM20.1768 18.2386C18.7791 18.2386 17.5746 17.9716 16.5632 17.4375C15.5575 16.8977 14.782 16.125 14.2365 15.1193C13.6967 14.108 13.4268 12.8977 13.4268 11.4886C13.4268 10.1364 13.6996 8.95455 14.245 7.94318C14.7905 6.93182 15.5604 6.14489 16.5547 5.58239C17.549 5.01989 18.7223 4.73864 20.0746 4.73864C21.0632 4.73864 21.9581 4.89205 22.7592 5.19886C23.5604 5.50568 24.245 5.9517 24.8132 6.53693C25.3814 7.11648 25.8189 7.82102 26.1257 8.65057C26.4325 9.48011 26.5859 10.4148 26.5859 11.4545V12.5455H14.8928V9.95455H22.2564C22.2507 9.57955 22.1541 9.25 21.9666 8.96591C21.7848 8.67614 21.5376 8.4517 21.2251 8.29261C20.9183 8.12784 20.5689 8.04545 20.1768 8.04545C19.7962 8.04545 19.4467 8.12784 19.1286 8.29261C18.8104 8.4517 18.5547 8.6733 18.3615 8.95739C18.174 9.24148 18.0746 9.57386 18.0632 9.95455V12.75C18.0632 13.1705 18.1513 13.5455 18.3274 13.875C18.5036 14.2045 18.7564 14.4631 19.0859 14.6506C19.4155 14.8381 19.8132 14.9318 20.2791 14.9318C20.603 14.9318 20.8984 14.8864 21.1655 14.7955C21.4382 14.7045 21.6712 14.5739 21.8643 14.4034C22.0575 14.2273 22.1996 14.017 22.2905 13.7727H26.5859C26.4382 14.6818 26.0888 15.4716 25.5376 16.142C24.9865 16.8068 24.2564 17.3239 23.3473 17.6932C22.4439 18.0568 21.3871 18.2386 20.1768 18.2386ZM32.1534 18.2045C31.3182 18.2045 30.5795 18.0682 29.9375 17.7955C29.3011 17.517 28.8011 17.0966 28.4375 16.5341C28.0739 15.9716 27.892 15.2557 27.892 14.3864C27.892 13.6705 28.0142 13.0597 28.2585 12.554C28.5028 12.0426 28.8438 11.625 29.2812 11.3011C29.7188 10.9773 30.2273 10.7301 30.8068 10.5597C31.392 10.3892 32.0227 10.2784 32.6989 10.2273C33.4318 10.1705 34.0199 10.1023 34.4631 10.0227C34.9119 9.9375 35.2358 9.82102 35.4347 9.6733C35.6335 9.51989 35.733 9.31818 35.733 9.06818V9.03409C35.733 8.69318 35.6023 8.43182 35.3409 8.25C35.0795 8.06818 34.7443 7.97727 34.3352 7.97727C33.8864 7.97727 33.5199 8.0767 33.2358 8.27557C32.9574 8.46875 32.7898 8.76705 32.733 9.17045H28.4034C28.4602 8.375 28.7131 7.64205 29.1619 6.97159C29.6165 6.29545 30.2784 5.75568 31.1477 5.35227C32.017 4.94318 33.1023 4.73864 34.4034 4.73864C35.3409 4.73864 36.1818 4.84943 36.9261 5.07102C37.6705 5.28693 38.304 5.59091 38.8267 5.98295C39.3494 6.36932 39.7472 6.82386 40.0199 7.34659C40.2983 7.86364 40.4375 8.42614 40.4375 9.03409V18H36.0398V16.1591H35.9375C35.6761 16.6477 35.358 17.0426 34.983 17.3438C34.6136 17.6449 34.1903 17.8636 33.7131 18C33.2415 18.1364 32.7216 18.2045 32.1534 18.2045ZM33.6875 15.2386C34.0455 15.2386 34.3807 15.1648 34.6932 15.017C35.0114 14.8693 35.2699 14.6562 35.4688 14.3778C35.6676 14.0994 35.767 13.7614 35.767 13.3636V12.2727C35.642 12.3239 35.5085 12.3722 35.3665 12.4176C35.2301 12.4631 35.0824 12.5057 34.9233 12.5455C34.7699 12.5852 34.6051 12.6222 34.429 12.6562C34.2585 12.6903 34.0795 12.7216 33.892 12.75C33.5284 12.8068 33.2301 12.9006 32.9972 13.0312C32.7699 13.1562 32.5994 13.3125 32.4858 13.5C32.3778 13.6818 32.3239 13.8864 32.3239 14.1136C32.3239 14.4773 32.4517 14.7557 32.7074 14.9489C32.9631 15.142 33.2898 15.2386 33.6875 15.2386ZM42.6854 18V4.90909H47.2536V7.39773H47.3899C47.6286 6.47727 48.0064 5.80398 48.5234 5.37784C49.0462 4.9517 49.657 4.73864 50.3558 4.73864C50.5604 4.73864 50.7621 4.75568 50.9609 4.78977C51.1655 4.81818 51.3615 4.8608 51.549 4.91761V8.93182C51.3161 8.85227 51.0291 8.79261 50.6882 8.75284C50.3473 8.71307 50.0547 8.69318 49.8104 8.69318C49.3501 8.69318 48.9354 8.7983 48.5661 9.00852C48.2024 9.21307 47.9155 9.50284 47.7053 9.87784C47.495 10.2472 47.3899 10.6818 47.3899 11.1818V18H42.6854ZM57.7962 10.6364V18H53.0916V4.90909H57.5575V7.39773H57.6939C57.978 6.56818 58.478 5.91761 59.1939 5.44602C59.9155 4.97443 60.7564 4.73864 61.7166 4.73864C62.6428 4.73864 63.4467 4.9517 64.1286 5.37784C64.8161 5.7983 65.3473 6.37784 65.7223 7.11648C66.103 7.85511 66.2905 8.69886 66.2848 9.64773V18H61.5803V10.6364C61.5859 9.98864 61.4212 9.48011 61.0859 9.1108C60.7564 8.74148 60.2962 8.55682 59.7053 8.55682C59.3189 8.55682 58.9808 8.64205 58.6911 8.8125C58.407 8.97727 58.1882 9.21591 58.0348 9.52841C57.8814 9.83523 57.8018 10.2045 57.7962 10.6364Z" fill="white"/>
<path d="M75.2891 11.5227H78.9709L80.3004 13.1932L82.5504 15.75L85.4822 19.2955H81.2891L79.2095 16.875L77.8118 14.8636L75.2891 11.5227ZM85.4482 9.27273C85.4482 11.2159 85.0703 12.8551 84.3146 14.1903C83.5589 15.5199 82.5391 16.5284 81.255 17.2159C79.9709 17.8977 78.5391 18.2386 76.9595 18.2386C75.3686 18.2386 73.9311 17.8949 72.647 17.2074C71.3686 16.5142 70.3516 15.5028 69.5959 14.1733C68.8459 12.8381 68.4709 11.2045 68.4709 9.27273C68.4709 7.32955 68.8459 5.69318 69.5959 4.36364C70.3516 3.02841 71.3686 2.01989 72.647 1.33807C73.9311 0.650568 75.3686 0.306818 76.9595 0.306818C78.5391 0.306818 79.9709 0.650568 81.255 1.33807C82.5391 2.01989 83.5589 3.02841 84.3146 4.36364C85.0703 5.69318 85.4482 7.32955 85.4482 9.27273ZM80.5732 9.27273C80.5732 8.22727 80.4339 7.34659 80.1555 6.63068C79.8828 5.90909 79.4766 5.36364 78.9368 4.99432C78.4027 4.61932 77.7436 4.43182 76.9595 4.43182C76.1754 4.43182 75.5135 4.61932 74.9737 4.99432C74.4396 5.36364 74.0334 5.90909 73.755 6.63068C73.4822 7.34659 73.3459 8.22727 73.3459 9.27273C73.3459 10.3182 73.4822 11.2017 73.755 11.9233C74.0334 12.6392 74.4396 13.1847 74.9737 13.5597C75.5135 13.929 76.1754 14.1136 76.9595 14.1136C77.7436 14.1136 78.4027 13.929 78.9368 13.5597C79.4766 13.1847 79.8828 12.6392 80.1555 11.9233C80.4339 11.2017 80.5732 10.3182 80.5732 9.27273ZM96.2209 12.2727V4.90909H100.925V18H96.4595V15.5114H96.3232C96.0391 16.3466 95.5419 17 94.8317 17.4716C94.1214 17.9375 93.2777 18.1705 92.3004 18.1705C91.3857 18.1705 90.5845 17.9602 89.897 17.5398C89.2152 17.1193 88.6839 16.5398 88.3033 15.8011C87.9283 15.0625 87.7379 14.2159 87.7322 13.2614V4.90909H92.4368V12.2727C92.4425 12.9205 92.6072 13.429 92.9311 13.7983C93.2607 14.1676 93.7209 14.3523 94.3118 14.3523C94.7038 14.3523 95.0419 14.2699 95.326 14.1051C95.6158 13.9347 95.8374 13.696 95.9908 13.3892C96.1499 13.0767 96.2266 12.7045 96.2209 12.2727ZM109.591 18.2386C108.193 18.2386 106.989 17.9716 105.977 17.4375C104.972 16.8977 104.196 16.125 103.651 15.1193C103.111 14.108 102.841 12.8977 102.841 11.4886C102.841 10.1364 103.114 8.95455 103.659 7.94318C104.205 6.93182 104.974 6.14489 105.969 5.58239C106.963 5.01989 108.136 4.73864 109.489 4.73864C110.477 4.73864 111.372 4.89205 112.173 5.19886C112.974 5.50568 113.659 5.9517 114.227 6.53693C114.795 7.11648 115.233 7.82102 115.54 8.65057C115.847 9.48011 116 10.4148 116 11.4545V12.5455H104.307V9.95455H111.67C111.665 9.57955 111.568 9.25 111.381 8.96591C111.199 8.67614 110.952 8.4517 110.639 8.29261C110.332 8.12784 109.983 8.04545 109.591 8.04545C109.21 8.04545 108.861 8.12784 108.543 8.29261C108.224 8.4517 107.969 8.6733 107.776 8.95739C107.588 9.24148 107.489 9.57386 107.477 9.95455V12.75C107.477 13.1705 107.565 13.5455 107.741 13.875C107.918 14.2045 108.17 14.4631 108.5 14.6506C108.83 14.8381 109.227 14.9318 109.693 14.9318C110.017 14.9318 110.313 14.8864 110.58 14.7955C110.852 14.7045 111.085 14.5739 111.278 14.4034C111.472 14.2273 111.614 14.017 111.705 13.7727H116C115.852 14.6818 115.503 15.4716 114.952 16.142C114.401 16.8068 113.67 17.3239 112.761 17.6932C111.858 18.0568 110.801 18.2386 109.591 18.2386ZM129.886 9.17045H125.556C125.533 8.90341 125.44 8.6733 125.275 8.48011C125.11 8.28693 124.897 8.1392 124.636 8.03693C124.38 7.92898 124.096 7.875 123.783 7.875C123.38 7.875 123.033 7.94886 122.744 8.09659C122.454 8.24432 122.312 8.45455 122.317 8.72727C122.312 8.92045 122.394 9.09943 122.565 9.2642C122.741 9.42898 123.079 9.55682 123.579 9.64773L126.238 10.125C127.579 10.3693 128.576 10.7812 129.229 11.3608C129.888 11.9347 130.221 12.7045 130.227 13.6705C130.221 14.6023 129.942 15.4119 129.391 16.0994C128.846 16.7812 128.099 17.3097 127.15 17.6847C126.207 18.054 125.13 18.2386 123.92 18.2386C121.92 18.2386 120.354 17.8295 119.224 17.0114C118.099 16.1932 117.471 15.1136 117.34 13.7727H122.011C122.073 14.1875 122.278 14.5085 122.624 14.7358C122.977 14.9574 123.42 15.0682 123.954 15.0682C124.386 15.0682 124.741 14.9943 125.019 14.8466C125.303 14.6989 125.448 14.4886 125.454 14.2159C125.448 13.9659 125.323 13.767 125.079 13.6193C124.84 13.4716 124.465 13.3523 123.954 13.2614L121.636 12.8523C120.3 12.6193 119.3 12.1761 118.636 11.5227C117.971 10.8693 117.641 10.0284 117.647 9C117.641 8.09091 117.88 7.32102 118.363 6.69034C118.852 6.05398 119.548 5.57102 120.451 5.24148C121.36 4.90625 122.437 4.73864 123.681 4.73864C125.573 4.73864 127.065 5.13068 128.156 5.91477C129.252 6.69886 129.829 7.78409 129.886 9.17045ZM139.836 4.90909V8.31818H131.211V4.90909H139.836ZM132.881 1.77273H137.586V13.7898C137.586 13.9716 137.617 14.125 137.68 14.25C137.742 14.3693 137.839 14.4602 137.969 14.5227C138.1 14.5795 138.268 14.608 138.472 14.608C138.614 14.608 138.779 14.5909 138.967 14.5568C139.16 14.5227 139.302 14.4943 139.393 14.4716L140.075 17.7784C139.864 17.8409 139.563 17.9176 139.171 18.0085C138.785 18.0994 138.325 18.1591 137.79 18.1875C136.711 18.2443 135.805 18.1335 135.072 17.8551C134.339 17.571 133.788 17.125 133.418 16.517C133.049 15.9091 132.87 15.1477 132.881 14.233V1.77273Z" fill="#FFA700"/>
</svg>
